<svg xmlns="http://www.w3.org/2000/svg" width="18" height="18" viewBox="0 0 18 18">
    <g fill="none" fill-rule="evenodd" stroke="#000" stroke-linecap="round" stroke-linejoin="round" stroke-width="1.5">
        <path d="M9 1.5L15.495 5.25 15.495 12.75 9 16.5 2.505 12.75 2.505 5.25z"/>
        <path d="M9 11.25l-1.3.684c-.367.192-.82.051-1.013-.315-.077-.146-.103-.313-.075-.476l.248-1.448h0L5.808 8.67c-.296-.289-.302-.764-.013-1.06.115-.119.266-.195.429-.22l1.453-.21h0l.65-1.317c.184-.372.633-.524 1.005-.341.148.073.268.193.34.34l.65 1.318h0l1.454.21c.41.06.694.441.634.85-.023.164-.1.315-.218.43L11.14 9.695h0l.248 1.448c.07.408-.204.796-.612.866-.163.028-.33.001-.476-.075L9 11.25h0z"/>
    </g>
</svg>
