<svg xmlns="http://www.w3.org/2000/svg" width="16" height="16" viewBox="0 0 16 16">
    <g fill="none" fill-rule="evenodd">
        <g fill="#000" fill-rule="nonzero">
            <g>
                <g>
                    <g>
                        <g>
                            <path d="M10.167 0c.342 0 .624.257.662.589l.004.078V4h2c.342 0 .624.257.662.589l.005.078v6.666c0 .342-.257.624-.589.662l-.078.005h-12c-.342 0-.624-.257-.662-.589l-.004-.078V4.667c0-.342.257-.624.588-.662L.833 4h2V.667c0-.342.258-.624.589-.662L3.5 0h6.667zm1.999 5.333H1.499v5.334h10.667V5.333zm-2 .653c.369 0 .667.298.667.667 0 .341-.257.623-.588.662l-.078.004H3.5c-.368 0-.667-.298-.667-.666 0-.342.258-.624.589-.663l.078-.004h6.667zM9.5 1.333H4.167v2.666H9.5V1.333z" transform="translate(-29 -304) translate(-1) translate(1 288) translate(29 16) translate(1.333 2)"/>
                        </g>
                    </g>
                </g>
            </g>
        </g>
    </g>
</svg>
