<svg xmlns="http://www.w3.org/2000/svg" width="24" height="24" viewBox="0 0 24 24">
    <path d="M18.001 17L18 12l-.004-.23C17.88 8.485 15.287 6 12 6c-3.287 0-5.88 2.485-5.996 5.77L6 12v2H4v-2l.004-.254C4.124 7.7 7.102 4.526 11 4.059L11 3l.007-.117c.057-.497.48-.883.993-.883s.936.386.993.883L13 3v1.06c3.895.466 6.871 3.635 6.996 7.675L20 12v6l-.007.117c-.053.459-.417.823-.876.876L19 19l-3.106.001C15.49 20.838 13.961 22 12 22c-1.96 0-3.489-1.162-3.894-2.999L4 19v-2h14.001zm-4.046 1.501h-3.91C10.226 19.46 10.95 20 12 20s1.773-.54 1.955-1.499z"/>
</svg>
