<svg xmlns="http://www.w3.org/2000/svg" width="18" height="18" viewBox="0 0 18 18">
    <path d="M9.991 1.727c.645 0 1.206.429 1.382 1.04l.029.117.203 1.015.126.066.12.067.118.07.119.077.982-.332c.573-.194 1.197-.007 1.571.448l.072.094.064.101.991 1.717c.322.557.233 1.254-.204 1.712l-.092.088-.779.684.004.073.004.206-.003.198-.004.065.83.73c.45.396.601 1.023.403 1.57l-.048.117-.06.113-.99 1.717c-.323.559-.975.83-1.592.677l-.115-.034-1.047-.354-.11.072-.114.067-.115.065-.119.061-.215 1.082c-.119.594-.593 1.04-1.173 1.137l-.118.015-.12.005H8.009c-.646 0-1.206-.429-1.382-1.04l-.029-.117-.216-1.083-.118-.06-.115-.065-.114-.067-.11-.072-1.047.354c-.573.194-1.197.007-1.57-.447l-.072-.095-.065-.101-.99-1.717c-.322-.557-.233-1.253.203-1.711l.092-.089.83-.73-.004-.065L3.3 8.97l.004-.206.003-.073-.778-.684c-.45-.396-.602-1.022-.403-1.57l.048-.117.059-.113.99-1.717c.324-.558.975-.83 1.592-.677l.116.034.982.332.12-.077.117-.07.12-.067.125-.066.204-1.015c.119-.594.593-1.04 1.173-1.137l.118-.015.12-.005H9.99zM9.913 3.26H8.086l-.263 1.317c-.043.218-.178.404-.368.513l-.084.042c-.312.133-.607.304-.879.509-.177.133-.401.183-.616.138l-.09-.024-1.275-.431-.913 1.582 1.01.888c.166.146.26.356.26.574l-.005.094c-.02.168-.031.337-.031.508 0 .167.01.333.03.497.025.219-.045.437-.19.6l-.066.066-1.06.93.914 1.583 1.336-.452c.21-.07.438-.047.627.061l.079.052c.266.2.554.366.858.497.203.086.357.256.426.463l.024.09.276 1.382h1.827l.277-1.381c.043-.217.177-.403.366-.512l.084-.042c.304-.13.592-.298.858-.497.177-.133.401-.182.615-.137l.09.024 1.337.452.913-1.583-1.059-.93c-.166-.146-.26-.355-.26-.573l.005-.093c.02-.164.029-.33.029-.497 0-.17-.01-.34-.03-.508-.027-.22.042-.439.188-.602l.066-.066 1.01-.888-.914-1.582-1.273.43c-.21.072-.44.048-.629-.061l-.078-.052c-.272-.205-.567-.376-.88-.509-.203-.086-.358-.256-.427-.464l-.024-.09-.264-1.318zM9 6.353c1.445 0 2.617 1.172 2.617 2.617 0 1.446-1.172 2.617-2.617 2.617S6.383 10.416 6.383 8.97c0-1.445 1.172-2.617 2.617-2.617zm0 1.533c-.599 0-1.084.486-1.084 1.084 0 .599.485 1.084 1.084 1.084.599 0 1.084-.485 1.084-1.084 0-.598-.485-1.084-1.084-1.084z"/>
</svg>
